<svg width="349.0160566057477" height="402.3949829101562" viewBox="0 0 390.99999999999994 450.79999999999995" class="looka-1j8o68f">
  <defs id="SvgjsDefs1474">
    <linearGradient id="SvgjsLinearGradient1481">
      <stop id="SvgjsStop1482" stop-color="#2d388a" offset="0"></stop>
      <stop id="SvgjsStop1483" stop-color="#00aeef" offset="1"></stop>
    </linearGradient>
  </defs>
  <g id="SvgjsG1475" featurekey="rootContainer" transform="matrix(1.149999976158142,0,0,1.149999976158142,-5.75,0)" fill="#fb9c2a">
    <path xmlns="http://www.w3.org/2000/svg" fill-rule="evenodd" d="M5,65 L175,0 L345, 65 L175, 10 z M5,312 L175,392 L345,307 L175, 382 z"></path>
  </g>
  <g id="SvgjsG1476" featurekey="symbolFeature-0" transform="matrix(0.5528524518013,0,0,0.5528524518013,111.22057512072317,85.24978789839851)" fill="url(#SvgjsLinearGradient1481)">
    <g xmlns="http://www.w3.org/2000/svg">
      <path d="M179.791,245.635c-9.424,10.211-11.915,4.984-20.77,10.914c-7.431,4.978-6.723,11.805-13.249,15.721   c-15.666,9.4-56.107,1.427-78.488-9.316c-22.381-10.743-32.077-33.655-37.449-52.456c-5.372-18.8-3.789-34.259,4.924-42.973   c18.352-18.353,34.915-20.591,34.915-20.591l-3.134-8.057L34.312,95.008l12.534-8.953l6.267,15.219l15.667-0.895   c0,0,18.354-34.468,31.781-41.629c13.429-7.162,58.193-9.4,58.193-9.4s-8.058,25.067-28.649,36.705   c-20.59,11.637-25.963,14.324-25.963,14.324l-35.052,3.781l-13.292,1.59c0,0,1.791,4.476,6.268,13.354   c4.476,8.878,14.324,23.351,14.324,23.351s5.372-9.847,15.22-16.115c9.848-6.267,18.021-11.037,33.123-8.952l8.058,1.343   l6.714-18.8c4.557-3.947,4.699-8.729,21.005-16.295c6.209-2.881,12.622-2.773,19.674-2.491c11.664,0.468,21.257,6.28,21.257,6.28   s1.158-7.254,0.892-19.29c-0.205-9.131,0-5.054,0-5.054l-2.266-25.548l14.875,8.121l-6.79,33.726l1.343,8.538   c0,0,15.443-6.391,40.534,0.248c11.913,3.152,21.052,15.72,25.862,34.671c4.808,18.952,7.945,43.633-6.001,64.172   c-13.946,20.54-44.896,47.762-63.163,47.512c-7.611-0.104-10.431-6.362-19.356-6.929L179.791,245.635z M77.732,152.752   c0,0-24.619,4.924-33.124,15.667c-8.505,10.743-15.667,23.725-8.057,43.868c7.609,20.143,21.485,47.896,56.848,54.61   c35.363,6.713,40.288,4.477,44.763,2.238c4.476-2.238,9.849-12.533,17.011-17.458c4.205-2.892,9.045-1.675,15.219-6.715   c7.078-5.776,11.044-15.94,13.876-24.618c5.698-17.461,2.626-41.63-2.685-55.954c-3.058-8.246-14.908-28.476-43.867-38.049   C95.905,112.522,77.732,152.752,77.732,152.752z M115.333,199.753c2.686,2.686-0.373,7.609-1.267,8.952   c-0.896,1.344-5.302,0.299-8.581-3.133c-1.383-1.446-2.686-12.534-2.686-12.534S112.647,197.067,115.333,199.753z M122.009,203.156   c0,0,3.151-10.711,2.446-12.584c-1.67-4.443-5.312-7.134-6.663-6.248c-1.35,0.884-6.095,4.214-4.678,7.736   C114.53,195.585,122.009,203.156,122.009,203.156z"></path>
    </g>
  </g>
  <g id="SvgjsG1477" featurekey="nameFeature-0" transform="matrix(2.0458264350891113,0,0,2.0458264350891113,21,248.98690257555833)" fill="#137dc5">
    <path d="M5.48 40.24 c-3.04 0 -5.48 -2.48 -5.48 -5.48 l0 -4.36 l3.88 0 l0 4.36 c0 0.88 0.72 1.6 1.6 1.6 s1.56 -0.72 1.56 -1.6 l0 -3.8 l-7.04 -9.72 l0 -4.96 c0 -3.04 2.44 -5.52 5.48 -5.52 c3 0 5.44 2.48 5.44 5.52 l0 4.32 l-3.88 0 l0 -4.32 c0 -0.92 -0.68 -1.6 -1.56 -1.6 s-1.6 0.68 -1.6 1.6 l0 3.64 l7.04 9.72 l0 5.12 c0 3 -2.44 5.48 -5.44 5.48 z M20.828 40.08 c-3.24 0 -5.88 -2.64 -5.88 -5.88 l0 -22.72 l3.8 0 l0 22.72 c0 1.16 0.92 2.12 2.08 2.12 s2.08 -0.96 2.08 -2.12 l0 -22.72 l3.8 0 l0 22.72 c0 3.24 -2.64 5.88 -5.88 5.88 z M34.536 34 l0 5.96 l-3.8 0 l0 -28.52 l5.92 0 c2.64 0 4.76 2.16 4.76 4.8 l0 13 c0 2.64 -2.12 4.76 -4.76 4.76 l-2.12 0 z M34.536 15.239999999999998 l0 14.96 l2.12 0 c0.56 0 0.96 -0.4 0.96 -0.96 l0 -13 c0 -0.56 -0.4 -1 -0.96 -1 l-2.12 0 z M54.764 24.92 l-5.52 0 l0 11.28 l5.56 0 l0 3.8 l-9.36 0 l0 -28.56 l9.36 0 l0 3.8 l-5.56 0 l0 5.88 l5.52 0 l0 3.8 z M69.792 40.08 l-4.08 0 l-2.2 -6.04 l-0.88 0 l0 6.04 l-3.8 0 l0 -28.64 l5.96 0 c2.64 0 4.76 2.12 4.76 4.76 l0 13.08 c0 1.72 -0.88 3.2 -2.24 4.04 z M62.632 15.239999999999998 l0 15 l2.16 0 c0.52 0 0.96 -0.44 0.96 -0.96 l0 -13.08 c0 -0.52 -0.44 -0.96 -0.96 -0.96 l-2.16 0 z M85.42 11.36 l6.68 0 l0 28.56 l-3.76 0 l0 -22.6 l-3.56 22.68 l-1.48 0 l-0.36 -0.08 l-0.32 0.08 l-1.48 0 l-3.52 -22.68 l0 22.6 l-3.8 0 l0 -28.56 l6.72 0 l2.44 16.16 z M105.92800000000001 40 l-1.44 -9.88 l-4.04 0 l-1.32 9.88 l-3.84 0 l4.32 -28.6 l5.16 0 l5 28.6 l-3.84 0 z M100.96800000000002 26.32 l2.96 0 l-1.52 -10.4 z M124.196 40.08 l-4.08 0 l-2.2 -6.04 l-0.88 0 l0 6.04 l-3.8 0 l0 -28.64 l5.96 0 c2.64 0 4.76 2.12 4.76 4.76 l0 13.08 c0 1.72 -0.88 3.2 -2.24 4.04 z M117.036 15.239999999999998 l0 15 l2.16 0 c0.52 0 0.96 -0.44 0.96 -0.96 l0 -13.08 c0 -0.52 -0.44 -0.96 -0.96 -0.96 l-2.16 0 z M136.74400000000003 39.84 l-4.2 -15.76 l-0.6 1 l0 14.88 l-3.72 0 l0 -28.52 l3.72 0 l0 6.2 l2.48 -6.2 l4.6 0 l-3.8 8.24 l5.4 20.16 l-3.88 0 z M153.172 24.92 l-5.52 0 l0 11.28 l5.56 0 l0 3.8 l-9.36 0 l0 -28.56 l9.36 0 l0 3.8 l-5.56 0 l0 5.88 l5.52 0 l0 3.8 z M171.08 11.36 l0 3.84 l-4.76 0 l0 24.84 l-3.84 0 l0 -24.84 l-5.24 0 l0 -3.84 l13.84 0 z"></path>
  </g>
</svg>
